<svg width="41" height="41" viewBox="0 0 41 41" fill="none" xmlns="http://www.w3.org/2000/svg">
<path fill-rule="evenodd" clip-rule="evenodd" d="M20.3913 0C31.6531 0 40.7826 9.12947 40.7826 20.3912C40.7826 31.6531 31.6531 40.7826 20.3913 40.7826C9.1295 40.7826 0 31.6531 0 20.3912C0 9.12947 9.1295 0 20.3913 0ZM39.9999 20.3912C39.9999 9.56178 31.2208 0.782621 20.3913 0.782621C19.5177 0.782621 18.6576 0.839741 17.8142 0.950454C18.3591 0.902811 18.9105 0.878491 19.4677 0.878491C29.8159 0.878491 38.2048 9.26737 38.2048 19.6155C38.2048 29.9636 29.8159 38.3525 19.4677 38.3525C9.6708 38.3525 1.62999 30.8336 0.801165 21.2515C1.25141 31.6819 9.84991 39.9999 20.3913 39.9999C31.2208 39.9999 39.9999 31.2208 39.9999 20.3912ZM37.4221 19.6155C37.4221 9.69957 29.3837 1.66112 19.4677 1.66112C18.6626 1.66112 17.8698 1.71412 17.0927 1.81681C17.5712 1.77655 18.0553 1.75601 18.5442 1.75601C27.9788 1.75601 35.627 9.40427 35.627 18.8387C35.627 28.2733 27.9788 35.9215 18.5442 35.9215C9.6236 35.9215 2.30003 29.0838 1.52866 20.3636C1.92085 29.9326 9.8024 37.5699 19.4677 37.5699C29.3837 37.5699 37.4221 29.5314 37.4221 19.6155ZM18.5442 2.53864C27.5465 2.53864 34.8444 9.83647 34.8444 18.8387C34.8444 27.841 27.5465 35.1388 18.5442 35.1388C9.7505 35.1388 2.58318 28.1752 2.25583 19.4615C2.96258 27.3265 9.57191 33.4904 17.6208 33.4904C26.1411 33.4904 33.0483 26.5833 33.0483 18.0629C33.0483 9.54257 26.1411 2.63548 17.6208 2.63548C17.18 2.63548 16.7435 2.65397 16.3121 2.6902C17.0419 2.59027 17.787 2.53864 18.5442 2.53864ZM32.2656 18.0629C32.2656 9.97484 25.7089 3.41811 17.6208 3.41811C16.9374 3.41811 16.2649 3.46491 15.6065 3.55549C15.966 3.52735 16.3294 3.51302 16.6962 3.51302C24.303 3.51302 30.4695 9.67947 30.4695 17.2862C30.4695 24.8929 24.303 31.0594 16.6962 31.0594C9.53661 31.0594 3.65292 25.5965 2.98601 18.6116C3.27454 26.4455 9.71631 32.7078 17.6208 32.7078C25.7089 32.7078 32.2656 26.1511 32.2656 18.0629ZM16.6962 4.29564C23.8707 4.29564 29.6868 10.1117 29.6868 17.2862C29.6868 24.4607 23.8707 30.2768 16.6962 30.2768C9.66311 30.2768 3.93536 24.6876 3.71242 17.7086C4.31455 23.8388 9.4843 28.6284 15.7727 28.6284C22.4659 28.6284 27.8917 23.2025 27.8917 16.5094C27.8917 9.81637 22.4659 4.39053 15.7727 4.39053C15.4658 4.39053 15.1615 4.40194 14.8603 4.42436C15.4601 4.33952 16.073 4.29564 16.6962 4.29564ZM27.1091 16.5094C27.1091 10.2485 22.0336 5.17316 15.7727 5.17316C15.2012 5.17316 14.6396 5.21545 14.0908 5.29707C14.3413 5.27913 14.5942 5.27 14.8493 5.27C20.6282 5.27 25.313 9.95474 25.313 15.7336C25.313 21.5126 20.6282 26.1973 14.8493 26.1973C9.4341 26.1973 4.97972 22.0838 4.44039 16.811C4.60028 22.9325 9.6128 27.8458 15.7727 27.8458C22.0336 27.8458 27.1091 22.7703 27.1091 16.5094ZM14.8493 6.05263C20.196 6.05263 24.5303 10.3869 24.5303 15.7336C24.5303 21.0804 20.196 25.4147 14.8493 25.4147C9.5706 25.4147 5.27871 21.19 5.17032 15.9373C5.65795 20.3412 9.3919 23.7663 13.9258 23.7663C18.7911 23.7663 22.7352 19.8222 22.7352 14.9569C22.7352 10.0916 18.7911 6.14752 13.9258 6.14752C13.7397 6.14752 13.555 6.15329 13.3718 6.16466C13.8535 6.09089 14.3469 6.05263 14.8493 6.05263ZM21.9526 14.9569C21.9526 10.5238 18.3589 6.93015 13.9258 6.93015C13.4806 6.93015 13.0439 6.96639 12.6184 7.03608C12.7452 7.0294 12.8728 7.02602 13.0013 7.02602C16.9529 7.02602 20.1564 10.2294 20.1564 14.1811C20.1564 18.1328 16.9529 21.3363 13.0013 21.3363C9.3474 21.3363 6.33315 18.5973 5.89967 15.0605C5.95517 19.4459 9.5273 22.9837 13.9258 22.9837C18.3589 22.9837 21.9526 19.39 21.9526 14.9569ZM13.0013 7.80864C16.5207 7.80864 19.3738 10.6616 19.3738 14.1811C19.3738 17.7006 16.5207 20.5536 13.0013 20.5536C9.4819 20.5536 6.62879 17.7006 6.62879 14.1811C6.62879 14.1727 6.62881 14.1642 6.62884 14.1558C6.99526 16.8378 9.2952 18.9043 12.0778 18.9043C15.1153 18.9043 17.5777 16.4419 17.5777 13.4044C17.5777 10.3668 15.1153 7.90453 12.0778 7.90453C12.0091 7.90453 11.9407 7.90578 11.8726 7.90828C12.2389 7.84281 12.6161 7.80864 13.0013 7.80864ZM16.795 13.4044C16.795 10.7991 14.6831 8.68715 12.0778 8.68715C9.4725 8.68715 7.36056 10.7991 7.36056 13.4044C7.36056 16.0096 9.4725 18.1216 12.0778 18.1216C14.6831 18.1216 16.795 16.0096 16.795 13.4044Z" fill="#007DFB"/>
</svg>
