<svg width="157" height="43" viewBox="0 0 157 43" fill="none" xmlns="http://www.w3.org/2000/svg">
<path fill-rule="evenodd" clip-rule="evenodd" d="M21.3913 1C32.6531 1 41.7826 10.1295 41.7826 21.3912C41.7826 32.6531 32.6531 41.7826 21.3913 41.7826C10.1295 41.7826 1 32.6531 1 21.3912C1 10.1295 10.1295 1 21.3913 1ZM40.9999 21.3912C40.9999 10.5618 32.2208 1.78262 21.3913 1.78262C20.5177 1.78262 19.6576 1.83974 18.8142 1.95045C19.3591 1.90281 19.9105 1.87849 20.4677 1.87849C30.8159 1.87849 39.2048 10.2674 39.2048 20.6155C39.2048 30.9636 30.8159 39.3525 20.4677 39.3525C10.6708 39.3525 2.62999 31.8336 1.80116 22.2515C2.25142 32.6819 10.8499 40.9999 21.3913 40.9999C32.2208 40.9999 40.9999 32.2208 40.9999 21.3912ZM38.4221 20.6155C38.4221 10.6996 30.3837 2.66112 20.4677 2.66112C19.6626 2.66112 18.8698 2.71412 18.0927 2.81681C18.5712 2.77655 19.0553 2.75601 19.5442 2.75601C28.9788 2.75601 36.627 10.4043 36.627 19.8387C36.627 29.2733 28.9788 36.9215 19.5442 36.9215C10.6236 36.9215 3.30002 30.0838 2.52866 21.3636C2.92085 30.9326 10.8024 38.5699 20.4677 38.5699C30.3837 38.5699 38.4221 30.5314 38.4221 20.6155ZM19.5442 3.53864C28.5465 3.53864 35.8444 10.8365 35.8444 19.8387C35.8444 28.841 28.5465 36.1388 19.5442 36.1388C10.7505 36.1388 3.58317 29.1752 3.25583 20.4615C3.96257 28.3265 10.5719 34.4904 18.6208 34.4904C27.1411 34.4904 34.0483 27.5833 34.0483 19.0629C34.0483 10.5426 27.1411 3.63548 18.6208 3.63548C18.18 3.63548 17.7435 3.65397 17.3121 3.6902C18.0419 3.59027 18.787 3.53864 19.5442 3.53864ZM33.2656 19.0629C33.2656 10.9748 26.7089 4.41811 18.6208 4.41811C17.9374 4.41811 17.2649 4.46491 16.6065 4.55549C16.966 4.52735 17.3294 4.51302 17.6962 4.51302C25.303 4.51302 31.4695 10.6795 31.4695 18.2862C31.4695 25.8929 25.303 32.0594 17.6962 32.0594C10.5366 32.0594 4.65292 26.5965 3.98601 19.6116C4.27454 27.4455 10.7163 33.7078 18.6208 33.7078C26.7089 33.7078 33.2656 27.1511 33.2656 19.0629ZM17.6962 5.29564C24.8707 5.29564 30.6868 11.1117 30.6868 18.2862C30.6868 25.4607 24.8707 31.2768 17.6962 31.2768C10.6631 31.2768 4.93536 25.6876 4.71242 18.7086C5.31455 24.8388 10.4843 29.6284 16.7727 29.6284C23.4659 29.6284 28.8917 24.2025 28.8917 17.5094C28.8917 10.8164 23.4659 5.39053 16.7727 5.39053C16.4658 5.39053 16.1615 5.40194 15.8603 5.42436C16.4601 5.33952 17.073 5.29564 17.6962 5.29564ZM28.1091 17.5094C28.1091 11.2485 23.0336 6.17316 16.7727 6.17316C16.2012 6.17316 15.6396 6.21545 15.0908 6.29707C15.3413 6.27913 15.5942 6.27 15.8493 6.27C21.6282 6.27 26.313 10.9547 26.313 16.7336C26.313 22.5126 21.6282 27.1973 15.8493 27.1973C10.4341 27.1973 5.97972 23.0838 5.44039 17.811C5.60029 23.9325 10.6128 28.8458 16.7727 28.8458C23.0336 28.8458 28.1091 23.7703 28.1091 17.5094ZM15.8493 7.05263C21.196 7.05263 25.5303 11.3869 25.5303 16.7336C25.5303 22.0804 21.196 26.4147 15.8493 26.4147C10.5706 26.4147 6.27871 22.19 6.17032 16.9373C6.65795 21.3412 10.3919 24.7663 14.9258 24.7663C19.7911 24.7663 23.7352 20.8222 23.7352 15.9569C23.7352 11.0916 19.7911 7.14752 14.9258 7.14752C14.7397 7.14752 14.555 7.15329 14.3718 7.16466C14.8535 7.09089 15.3469 7.05263 15.8493 7.05263ZM22.9526 15.9569C22.9526 11.5238 19.3589 7.93015 14.9258 7.93015C14.4806 7.93015 14.0439 7.96639 13.6184 8.03608C13.7452 8.0294 13.8728 8.02602 14.0013 8.02602C17.9529 8.02602 21.1564 11.2294 21.1564 15.1811C21.1564 19.1328 17.9529 22.3363 14.0013 22.3363C10.3474 22.3363 7.33315 19.5973 6.89967 16.0605C6.95517 20.4459 10.5273 23.9837 14.9258 23.9837C19.3589 23.9837 22.9526 20.39 22.9526 15.9569ZM14.0013 8.80864C17.5207 8.80864 20.3738 11.6616 20.3738 15.1811C20.3738 18.7006 17.5207 21.5536 14.0013 21.5536C10.4819 21.5536 7.62879 18.7006 7.62879 15.1811C7.62879 15.1727 7.62881 15.1642 7.62884 15.1558C7.99525 17.8378 10.2952 19.9043 13.0778 19.9043C16.1153 19.9043 18.5777 17.4419 18.5777 14.4044C18.5777 11.3668 16.1153 8.90453 13.0778 8.90453C13.0091 8.90453 12.9407 8.90578 12.8726 8.90828C13.2389 8.84281 13.6161 8.80864 14.0013 8.80864ZM17.795 14.4044C17.795 11.7991 15.6831 9.68715 13.0778 9.68715C10.4725 9.68715 8.36056 11.7991 8.36056 14.4044C8.36056 17.0096 10.4725 19.1216 13.0778 19.1216C15.6831 19.1216 17.795 17.0096 17.795 14.4044Z" fill="#007DFB"/>
<path d="M72.9826 34.6363H56.7826V9.1763H61.9926V30.3163H72.9826V34.6363ZM79.3026 34.6363H74.1726V15.5263H79.3026V34.6363ZM76.7426 13.0363C75.9626 13.0363 75.2993 12.7796 74.7526 12.2663C74.2059 11.753 73.9326 11.133 73.9326 10.4063C73.9326 9.67296 74.2059 9.04963 74.7526 8.5363C75.2993 8.02296 75.9626 7.7663 76.7426 7.7663C77.5159 7.7663 78.1793 8.02296 78.7326 8.5363C79.2859 9.04296 79.5626 9.6663 79.5626 10.4063C79.5626 11.133 79.2859 11.753 78.7326 12.2663C78.1793 12.7796 77.5159 13.0363 76.7426 13.0363ZM79.5426 15.5263H92.0126V19.4463H79.5426V15.5263ZM88.0126 34.6363H82.9026V14.0563C82.9026 12.703 83.1759 11.5763 83.7226 10.6763C84.2626 9.7763 84.9993 9.09963 85.9326 8.6463C86.8659 8.19963 87.9259 7.9763 89.1126 7.9763C89.9193 7.9763 90.6559 8.04296 91.3226 8.1763C91.9893 8.30296 92.4759 8.41296 92.7826 8.5063L91.8626 12.3663C91.6426 12.313 91.3893 12.2563 91.1026 12.1963C90.8093 12.143 90.4926 12.1163 90.1526 12.1163C89.3793 12.1163 88.8293 12.2996 88.5026 12.6663C88.1759 13.0396 88.0126 13.5596 88.0126 14.2263V34.6363ZM101.673 35.0163C99.7193 35.0163 98.0359 34.6163 96.6226 33.8163C95.2159 33.0163 94.1326 31.883 93.3726 30.4163C92.6126 28.943 92.2326 27.1996 92.2326 25.1863C92.2326 23.213 92.6093 21.4863 93.3626 20.0063C94.1159 18.5263 95.1826 17.3696 96.5626 16.5363C97.9359 15.703 99.5526 15.2863 101.413 15.2863C102.666 15.2863 103.833 15.4863 104.913 15.8863C105.999 16.2863 106.953 16.8896 107.773 17.6963C108.593 18.4963 109.233 19.4996 109.693 20.7063C110.153 21.913 110.383 23.3363 110.383 24.9763V26.4163H94.3326V23.2063H107.873L105.483 24.0563C105.483 23.063 105.329 22.1996 105.023 21.4663C104.723 20.733 104.273 20.163 103.673 19.7563C103.079 19.3563 102.336 19.1563 101.443 19.1563C100.569 19.1563 99.8226 19.3596 99.2026 19.7663C98.5826 20.1796 98.1126 20.7363 97.7926 21.4363C97.4726 22.1363 97.3126 22.9363 97.3126 23.8363V26.1063C97.3126 27.213 97.4959 28.143 97.8626 28.8963C98.2359 29.6496 98.7559 30.213 99.4226 30.5863C100.089 30.9596 100.866 31.1463 101.753 31.1463C102.359 31.1463 102.906 31.063 103.393 30.8963C103.886 30.723 104.306 30.4696 104.653 30.1363C104.999 29.7963 105.263 29.383 105.443 28.8963L110.093 29.7663C109.786 30.813 109.249 31.733 108.483 32.5263C107.723 33.3196 106.769 33.933 105.623 34.3663C104.476 34.7996 103.159 35.0163 101.673 35.0163ZM122.913 34.9763C120.666 34.9763 118.646 34.463 116.853 33.4363C115.059 32.4163 113.639 30.9296 112.593 28.9763C111.553 27.0296 111.033 24.6796 111.033 21.9263C111.033 19.153 111.553 16.7896 112.593 14.8363C113.639 12.883 115.059 11.393 116.853 10.3663C118.646 9.33963 120.666 8.8263 122.913 8.8263C125.166 8.8263 127.186 9.33963 128.973 10.3663C130.766 11.393 132.183 12.883 133.223 14.8363C134.263 16.7896 134.783 19.153 134.783 21.9263C134.783 24.6796 134.263 27.0296 133.223 28.9763C132.183 30.9296 130.766 32.4163 128.973 33.4363C127.186 34.463 125.166 34.9763 122.913 34.9763ZM122.913 30.3463C124.233 30.3463 125.386 30.023 126.373 29.3763C127.359 28.7363 128.126 27.7863 128.673 26.5263C129.219 25.2663 129.493 23.733 129.493 21.9263C129.493 20.0863 129.219 18.5396 128.673 17.2863C128.126 16.0263 127.359 15.073 126.373 14.4263C125.386 13.7863 124.233 13.4663 122.913 13.4663C121.599 13.4663 120.446 13.7896 119.453 14.4363C118.466 15.083 117.699 16.0363 117.153 17.2963C116.606 18.5563 116.333 20.0996 116.333 21.9263C116.333 23.733 116.606 25.263 117.153 26.5163C117.699 27.7696 118.466 28.723 119.453 29.3763C120.446 30.023 121.599 30.3463 122.913 30.3463ZM145.753 35.0163C143.713 35.0163 141.939 34.703 140.433 34.0763C138.926 33.4496 137.749 32.5196 136.903 31.2863C136.063 30.053 135.619 28.5363 135.573 26.7363H140.643C140.716 27.5963 140.973 28.313 141.413 28.8863C141.859 29.4596 142.453 29.8896 143.193 30.1763C143.933 30.463 144.769 30.6063 145.703 30.6063C146.636 30.6063 147.449 30.473 148.143 30.2063C148.829 29.933 149.366 29.553 149.753 29.0663C150.139 28.573 150.333 28.003 150.333 27.3563C150.333 26.7763 150.159 26.2896 149.813 25.8963C149.466 25.503 148.969 25.163 148.323 24.8763C147.669 24.5896 146.876 24.3396 145.943 24.1263L143.143 23.4263C140.989 22.8996 139.303 22.0763 138.083 20.9563C136.863 19.8363 136.253 18.353 136.253 16.5063C136.253 14.9663 136.666 13.6196 137.493 12.4663C138.319 11.3196 139.453 10.4263 140.893 9.7863C142.333 9.1463 143.976 8.8263 145.823 8.8263C147.703 8.8263 149.343 9.14963 150.743 9.7963C152.149 10.443 153.246 11.3363 154.033 12.4763C154.813 13.623 155.216 14.943 155.243 16.4363H150.203C150.109 15.4096 149.673 14.6163 148.893 14.0563C148.113 13.503 147.073 13.2263 145.773 13.2263C144.893 13.2263 144.139 13.3496 143.513 13.5963C142.886 13.8496 142.409 14.1963 142.083 14.6363C141.749 15.083 141.583 15.593 141.583 16.1663C141.583 16.793 141.776 17.313 142.163 17.7263C142.543 18.1396 143.043 18.4763 143.663 18.7363C144.283 18.9896 144.953 19.203 145.673 19.3763L147.983 19.9363C149.049 20.1763 150.046 20.503 150.973 20.9163C151.893 21.323 152.699 21.8263 153.393 22.4263C154.093 23.0263 154.633 23.7363 155.013 24.5563C155.393 25.3763 155.583 26.3196 155.583 27.3863C155.583 28.9263 155.196 30.2696 154.423 31.4163C153.649 32.563 152.526 33.4496 151.053 34.0763C149.586 34.703 147.819 35.0163 145.753 35.0163Z" fill="#18181B"/>
</svg>
